<?xml version="1.0" encoding="UTF-8"?>
<svg width="236px" height="84px" viewBox="0 0 236 84" version="1.1" xmlns="http://www.w3.org/2000/svg" xmlns:xlink="http://www.w3.org/1999/xlink">
    <!-- Generator: Sketch 50.2 (55047) - http://www.bohemiancoding.com/sketch -->
    <title>atlas-logo</title>
    <desc>Created with Sketch.</desc>
    <defs></defs>
    <g id="Page-1" stroke="none" stroke-width="1" fill="none" fill-rule="evenodd">
        <g id="ATLAS" transform="translate(-188.000000, -354.000000)">
            <g id="atlas-logo" transform="translate(188.000000, 353.000000)">
                <path d="M176.3789,16.8306 C176.0739,16.4396 175.6719,16.1296 175.1739,15.8986 C174.6799,15.6686 174.2029,15.5536 173.7419,15.5536 C173.5039,15.5536 173.2639,15.5726 173.0179,15.6156 C172.7749,15.6586 172.5529,15.7366 172.3589,15.8556 C172.1619,15.9756 171.9979,16.1296 171.8689,16.3166 C171.7339,16.5066 171.6679,16.7466 171.6679,17.0396 C171.6679,17.2916 171.7189,17.5006 171.8239,17.6666 C171.9279,17.8366 172.0839,17.9826 172.2849,18.1096 C172.4899,18.2346 172.7269,18.3506 173.0099,18.4536 C173.2889,18.5596 173.6019,18.6666 173.9509,18.7796 C174.4529,18.9456 174.9769,19.1316 175.5199,19.3326 C176.0669,19.5356 176.5629,19.8056 177.0079,20.1396 C177.4549,20.4756 177.8259,20.8916 178.1189,21.3856 C178.4139,21.8816 178.5589,22.5006 178.5589,23.2386 C178.5589,24.0906 178.4019,24.8286 178.0859,25.4496 C177.7739,26.0706 177.3499,26.5846 176.8219,26.9886 C176.2909,27.3936 175.6799,27.6936 174.9999,27.8896 C174.3149,28.0846 173.6089,28.1846 172.8829,28.1846 C171.8199,28.1846 170.7929,27.9986 169.8049,27.6276 C168.8109,27.2586 167.9879,26.7286 167.3299,26.0456 L169.6779,23.6586 C170.0429,24.1036 170.5179,24.4786 171.1129,24.7796 C171.7049,25.0786 172.2969,25.2286 172.8829,25.2286 C173.1489,25.2286 173.4079,25.2016 173.6559,25.1446 C173.9099,25.0906 174.1289,24.9986 174.3179,24.8736 C174.5059,24.7486 174.6539,24.5806 174.7699,24.3696 C174.8809,24.1606 174.9359,23.9106 174.9359,23.6176 C174.9359,23.3386 174.8649,23.1006 174.7249,22.9026 C174.5859,22.7096 174.3869,22.5316 174.1289,22.3716 C173.8689,22.2116 173.5489,22.0626 173.1659,21.9306 C172.7789,21.7996 172.3439,21.6546 171.8579,21.5006 C171.3809,21.3486 170.9159,21.1666 170.4629,20.9556 C170.0099,20.7466 169.6039,20.4786 169.2499,20.1506 C168.8929,19.8226 168.6079,19.4246 168.3909,18.9576 C168.1699,18.4886 168.0629,17.9206 168.0629,17.2506 C168.0629,16.4246 168.2309,15.7196 168.5699,15.1356 C168.9039,14.5476 169.3439,14.0666 169.8869,13.6876 C170.4339,13.3126 171.0469,13.0376 171.7309,12.8616 C172.4139,12.6876 173.1079,12.6006 173.8069,12.6006 C174.6429,12.6006 175.4979,12.7546 176.3689,13.0596 C177.2419,13.3676 178.0079,13.8206 178.6619,14.4226 L176.3789,16.8306 Z" id="Fill-5" fill="#1A1919"></path>
                <path d="M111.7607,46.1777 C111.7607,45.5327 111.6567,44.9317 111.4487,44.3727 C111.2377,43.8167 110.9467,43.3387 110.5787,42.9397 C110.2057,42.5437 109.7607,42.2287 109.2357,41.9987 C108.7157,41.7677 108.1397,41.6527 107.5107,41.6527 C106.8817,41.6527 106.3097,41.7677 105.7917,41.9987 C105.2767,42.2287 104.8287,42.5437 104.4537,42.9397 C104.0747,43.3387 103.7837,43.8167 103.5827,44.3727 C103.3797,44.9317 103.2787,45.5327 103.2787,46.1777 C103.2787,46.8477 103.3817,47.4647 103.5947,48.0297 C103.8037,48.5937 104.0927,49.0817 104.4617,49.4847 C104.8327,49.8887 105.2767,50.2087 105.7917,50.4397 C106.3097,50.6697 106.8817,50.7847 107.5107,50.7847 C108.1397,50.7847 108.7117,50.6697 109.2297,50.4397 C109.7447,50.2087 110.1927,49.8887 110.5677,49.4847 C110.9427,49.0817 111.2377,48.5937 111.4487,48.0297 C111.6567,47.4647 111.7607,46.8477 111.7607,46.1777 M115.5947,46.1777 C115.5947,47.3497 115.3917,48.4197 114.9857,49.3907 C114.5847,50.3617 114.0187,51.1897 113.3017,51.8827 C112.5827,52.5737 111.7277,53.1097 110.7357,53.4847 C109.7447,53.8617 108.6667,54.0507 107.5107,54.0507 C106.3507,54.0507 105.2807,53.8617 104.2937,53.4847 C103.3117,53.1097 102.4597,52.5737 101.7397,51.8827 C101.0207,51.1897 100.4597,50.3617 100.0537,49.3907 C99.6497,48.4197 99.4477,47.3497 99.4477,46.1777 C99.4477,44.9867 99.6497,43.9157 100.0537,42.9617 C100.4597,42.0047 101.0207,41.1897 101.7397,40.5217 C102.4597,39.8517 103.3117,39.3347 104.2937,38.9707 C105.2807,38.6097 106.3507,38.4277 107.5107,38.4277 C108.6667,38.4277 109.7447,38.6097 110.7357,38.9707 C111.7277,39.3347 112.5827,39.8517 113.3017,40.5217 C114.0187,41.1897 114.5847,42.0047 114.9857,42.9617 C115.3917,43.9157 115.5947,44.9867 115.5947,46.1777" id="Fill-7" fill="#1A1919"></path>
                <polygon id="Fill-9" fill="#1A1919" points="123.4199 41.8833 123.4199 44.9393 129.5839 44.9393 129.5839 47.8923 123.4199 47.8923 123.4199 53.6523 119.8789 53.6523 119.8789 38.8243 130.0679 38.8243 130.0679 41.8833"></polygon>
                <polygon id="Fill-11" fill="#1A1919" points="101.8408 79.5 101.8408 64.674 112.8228 64.674 112.8228 67.689 105.2998 67.689 105.2998 70.494 112.4658 70.494 112.4658 73.365 105.2998 73.365 105.2998 76.443 113.2018 76.443 113.2018 79.5"></polygon>
                <polygon id="Fill-13" fill="#1A1919" points="132.626 79.5 132.712 69.006 132.649 69.006 128.792 79.5 126.282 79.5 122.534 69.006 122.47 69.006 122.552 79.5 119.179 79.5 119.179 64.674 124.278 64.674 127.655 74.182 127.737 74.182 130.964 64.674 136.146 64.674 136.146 79.5"></polygon>
                <path d="M152.8213,72.0254 C152.8213,71.3824 152.7143,70.7794 152.5053,70.2224 C152.2983,69.6644 152.0073,69.1834 151.6353,68.7874 C151.2663,68.3884 150.8213,68.0764 150.2963,67.8454 C149.7723,67.6154 149.1963,67.5004 148.5673,67.5004 C147.9383,67.5004 147.3663,67.6154 146.8523,67.8454 C146.3353,68.0764 145.8853,68.3884 145.5103,68.7874 C145.1343,69.1834 144.8443,69.6644 144.6393,70.2224 C144.4383,70.7794 144.3393,71.3824 144.3393,72.0254 C144.3393,72.6954 144.4423,73.3124 144.6513,73.8774 C144.8603,74.4434 145.1493,74.9294 145.5223,75.3324 C145.8893,75.7364 146.3353,76.0564 146.8523,76.2874 C147.3663,76.5174 147.9383,76.6324 148.5673,76.6324 C149.1963,76.6324 149.7683,76.5174 150.2863,76.2874 C150.8013,76.0564 151.2493,75.7364 151.6283,75.3324 C152.0033,74.9294 152.2983,74.4434 152.5053,73.8774 C152.7143,73.3124 152.8213,72.6954 152.8213,72.0254 M156.6513,72.0254 C156.6513,73.1974 156.4523,74.2674 156.0463,75.2384 C155.6393,76.2094 155.0793,77.0394 154.3603,77.7304 C153.6393,78.4214 152.7843,78.9574 151.7963,79.3344 C150.8013,79.7094 149.7273,79.8984 148.5673,79.8984 C147.4113,79.8984 146.3393,79.7094 145.3543,79.3344 C144.3683,78.9574 143.5163,78.4214 142.8003,77.7304 C142.0773,77.0394 141.5163,76.2094 141.1103,75.2384 C140.7063,74.2674 140.5053,73.1974 140.5053,72.0254 C140.5053,70.8364 140.7063,69.7634 141.1103,68.8084 C141.5163,67.8534 142.0773,67.0394 142.8003,66.3694 C143.5163,65.6994 144.3683,65.1834 145.3543,64.8184 C146.3393,64.4574 147.4113,64.2754 148.5673,64.2754 C149.7273,64.2754 150.8013,64.4574 151.7963,64.8184 C152.7843,65.1834 153.6393,65.6994 154.3603,66.3694 C155.0793,67.0394 155.6393,67.8534 156.0463,68.8084 C156.4523,69.7634 156.6513,70.8364 156.6513,72.0254" id="Fill-15" fill="#1A1919"></path>
                <polygon id="Fill-17" fill="#1A1919" points="167.3203 67.7305 167.3203 79.5005 163.7383 79.5005 163.7383 67.7305 159.2633 67.7305 159.2633 64.6735 171.7993 64.6735 171.7993 67.7305"></polygon>
                <polygon id="Fill-19" fill="#1A1919" points="177.001 79.5 180.605 79.5 180.605 64.674 177.001 64.674"></polygon>
                <path d="M197.5732,72.0254 C197.5732,71.3824 197.4692,70.7794 197.2612,70.2224 C197.0502,69.6644 196.7592,69.1834 196.3912,68.7874 C196.0182,68.3884 195.5732,68.0764 195.0482,67.8454 C194.5282,67.6154 193.9522,67.5004 193.3232,67.5004 C192.6942,67.5004 192.1222,67.6154 191.6042,67.8454 C191.0872,68.0764 190.6412,68.3884 190.2662,68.7874 C189.8862,69.1834 189.5962,69.6644 189.3952,70.2224 C189.1902,70.7794 189.0912,71.3824 189.0912,72.0254 C189.0912,72.6954 189.1942,73.3124 189.4072,73.8774 C189.6142,74.4434 189.9052,74.9294 190.2722,75.3324 C190.6452,75.7364 191.0872,76.0564 191.6042,76.2874 C192.1222,76.5174 192.6942,76.6324 193.3232,76.6324 C193.9522,76.6324 194.5242,76.5174 195.0402,76.2874 C195.5572,76.0564 196.0052,75.7364 196.3802,75.3324 C196.7552,74.9294 197.0502,74.4434 197.2612,73.8774 C197.4692,73.3124 197.5732,72.6954 197.5732,72.0254 M201.4072,72.0254 C201.4072,73.1974 201.2042,74.2674 200.7982,75.2384 C200.3952,76.2094 199.8312,77.0394 199.1122,77.7304 C198.3952,78.4214 197.5402,78.9574 196.5482,79.3344 C195.5572,79.7094 194.4792,79.8984 193.3232,79.8984 C192.1632,79.8984 191.0912,79.7094 190.1062,79.3344 C189.1242,78.9574 188.2722,78.4214 187.5522,77.7304 C186.8332,77.0394 186.2722,76.2094 185.8662,75.2384 C185.4622,74.2674 185.2602,73.1974 185.2602,72.0254 C185.2602,70.8364 185.4622,69.7634 185.8662,68.8084 C186.2722,67.8534 186.8332,67.0394 187.5522,66.3694 C188.2722,65.6994 189.1242,65.1834 190.1062,64.8184 C191.0912,64.4574 192.1632,64.2754 193.3232,64.2754 C194.4792,64.2754 195.5572,64.4574 196.5482,64.8184 C197.5402,65.1834 198.3952,65.6994 199.1122,66.3694 C199.8312,67.0394 200.3952,67.8534 200.7982,68.8084 C201.2042,69.7634 201.4072,70.8364 201.4072,72.0254" id="Fill-21" fill="#1A1919"></path>
                <polygon id="Fill-22" fill="#1A1919" points="214.9141 79.5 208.9451 69.805 208.8831 69.805 208.9691 79.5 205.4921 79.5 205.4921 64.674 209.5741 64.674 215.5251 74.35 215.5881 74.35 215.5021 64.674 218.9801 64.674 218.9801 79.5"></polygon>
                <path d="M232.9023,68.5254 C232.5973,68.1344 232.1953,67.8224 231.6973,67.5914 C231.2033,67.3614 230.7263,67.2464 230.2653,67.2464 C230.0273,67.2464 229.7853,67.2694 229.5413,67.3104 C229.2983,67.3554 229.0763,67.4334 228.8823,67.5504 C228.6853,67.6704 228.5213,67.8224 228.3903,68.0134 C228.2573,68.2034 228.1893,68.4414 228.1893,68.7344 C228.1893,68.9864 228.2423,69.1954 228.3453,69.3634 C228.4513,69.5294 228.6073,69.6794 228.8083,69.8044 C229.0113,69.9274 229.2503,70.0434 229.5333,70.1464 C229.8123,70.2554 230.1253,70.3634 230.4743,70.4744 C230.9763,70.6424 231.5003,70.8284 232.0433,71.0294 C232.5903,71.2304 233.0843,71.5024 233.5313,71.8364 C233.9763,72.1704 234.3493,72.5874 234.6423,73.0824 C234.9353,73.5764 235.0823,74.1934 235.0823,74.9334 C235.0823,75.7854 234.9253,76.5254 234.6093,77.1464 C234.2973,77.7674 233.8733,78.2814 233.3453,78.6814 C232.8123,79.0884 232.2033,79.3884 231.5233,79.5864 C230.8383,79.7794 230.1313,79.8794 229.4063,79.8794 C228.3433,79.8794 227.3163,79.6934 226.3283,79.3224 C225.3343,78.9534 224.5113,78.4254 223.8533,77.7424 L226.2013,75.3534 C226.5643,75.8004 227.0413,76.1754 227.6363,76.4724 C228.2283,76.7754 228.8183,76.9234 229.4063,76.9234 C229.6703,76.9234 229.9313,76.8964 230.1793,76.8414 C230.4333,76.7854 230.6523,76.6934 230.8413,76.5704 C231.0273,76.4434 231.1753,76.2754 231.2913,76.0644 C231.4043,75.8554 231.4593,75.6074 231.4593,75.3124 C231.4593,75.0334 231.3883,74.7964 231.2483,74.5994 C231.1093,74.4064 230.9083,74.2264 230.6523,74.0664 C230.3923,73.9084 230.0723,73.7574 229.6893,73.6254 C229.3023,73.4944 228.8673,73.3494 228.3813,73.1974 C227.9043,73.0454 227.4393,72.8614 226.9863,72.6504 C226.5313,72.4414 226.1273,72.1734 225.7733,71.8474 C225.4163,71.5154 225.1293,71.1174 224.9143,70.6524 C224.6953,70.1854 224.5863,69.6154 224.5863,68.9454 C224.5863,68.1214 224.7543,67.4144 225.0913,66.8304 C225.4273,66.2424 225.8653,65.7634 226.4083,65.3824 C226.9553,65.0074 227.5683,64.7324 228.2543,64.5584 C228.9373,64.3824 229.6293,64.2934 230.3283,64.2934 C231.1663,64.2934 232.0213,64.4494 232.8903,64.7554 C233.7653,65.0644 234.5313,65.5174 235.1853,66.1154 L232.9023,68.5254 Z" id="Fill-23" fill="#1A1919"></path>
                <path d="M107.749,16.9341 L105.862,22.0261 L109.589,22.0261 L107.749,16.9341 Z M111.728,27.8051 L110.575,24.8951 L104.837,24.8951 L103.747,27.8051 L99.851,27.8051 L106.071,12.9771 L109.548,12.9771 L115.708,27.8051 L111.728,27.8051 Z" id="Fill-1" fill="#1A1919"></path>
                <polygon id="Fill-2" fill="#1A1919" points="125.165 16.0337 125.165 27.8047 121.585 27.8047 121.585 16.0337 117.104 16.0337 117.104 12.9767 129.642 12.9767 129.642 16.0337"></polygon>
                <polygon id="Fill-3" fill="#1A1919" points="134.709 27.8052 134.709 12.9772 138.313 12.9772 138.313 24.6842 144.326 24.6842 144.326 27.8052"></polygon>
                <path d="M155.9883,16.9341 L154.1013,22.0261 L157.8283,22.0261 L155.9883,16.9341 Z M159.9673,27.8051 L158.8143,24.8951 L153.0763,24.8951 L151.9863,27.8051 L148.0883,27.8051 L154.3103,12.9771 L157.7873,12.9771 L163.9453,27.8051 L159.9673,27.8051 Z" id="Fill-4" fill="#1A1919"></path>
                <g id="Group">
                    <path d="M84.0557,42.6021 C84.0557,65.5821 65.4247,84.2151 42.4447,84.2151 C19.4627,84.2151 0.8347,65.5821 0.8347,42.6021 C0.8347,19.6181 19.4627,0.9931 42.4447,0.9931 C65.4247,0.9931 84.0557,19.6181 84.0557,42.6021" id="Fill-24" fill="#1A1919"></path>
                    <polygon id="Fill-25" fill="#FFFFFE" points="27.0269 53.7051 42.4489 26.9971 57.8639 53.7051"></polygon>
                </g>
            </g>
        </g>
    </g>
</svg>