<?xml version="1.0" encoding="UTF-8"?>
<svg width="16px" height="16px" viewBox="0 0 16 16" version="1.1" xmlns="http://www.w3.org/2000/svg" xmlns:xlink="http://www.w3.org/1999/xlink">
    <!-- Generator: Sketch 41.2 (35397) - http://www.bohemiancoding.com/sketch -->
    <title>Fill 1</title>
    <desc>Created with Sketch.</desc>
    <defs></defs>
    <g id="label-descriptions" stroke="none" stroke-width="1" fill="none" fill-rule="evenodd">
        <g id="Artboard-2" transform="translate(-285.000000, -81.000000)" fill="#000000">
            <path d="M300.429,82.286 L300.429,86.786 C300.429,86.96 300.366,87.111 300.238,87.238 C300.111,87.365 299.96,87.429 299.786,87.429 L295.286,87.429 C295.005,87.429 294.807,87.295 294.694,87.027 C294.579,86.765 294.626,86.535 294.834,86.334 L296.22,84.948 C295.229,84.03 294.061,83.572 292.714,83.572 C292.018,83.572 291.354,83.707 290.721,83.978 C290.088,84.249 289.54,84.616 289.078,85.078 C288.616,85.54 288.249,86.088 287.979,86.721 C287.707,87.353 287.572,88.018 287.572,88.714 C287.572,89.411 287.707,90.076 287.979,90.708 C288.249,91.341 288.616,91.889 289.078,92.35 C289.54,92.813 290.088,93.179 290.721,93.451 C291.354,93.721 292.018,93.858 292.714,93.858 C293.511,93.858 294.265,93.683 294.975,93.334 C295.684,92.987 296.283,92.494 296.773,91.858 C296.82,91.791 296.897,91.751 297.003,91.738 C297.104,91.738 297.188,91.768 297.255,91.828 L298.631,93.214 C298.691,93.268 298.723,93.336 298.726,93.42 C298.73,93.504 298.704,93.579 298.651,93.647 C297.921,94.53 297.037,95.215 295.999,95.701 C294.961,96.186 293.866,96.429 292.714,96.429 C291.67,96.429 290.672,96.224 289.721,95.816 C288.771,95.408 287.95,94.858 287.26,94.168 C286.571,93.479 286.022,92.659 285.613,91.708 C285.204,90.757 285,89.759 285,88.714 C285,87.67 285.204,86.672 285.613,85.721 C286.022,84.77 286.571,83.95 287.26,83.26 C287.95,82.571 288.771,82.021 289.721,81.613 C290.672,81.204 291.67,81 292.714,81 C293.699,81 294.652,81.186 295.573,81.557 C296.492,81.929 297.312,82.453 298.029,83.13 L299.334,81.834 C299.529,81.626 299.762,81.579 300.037,81.693 C300.298,81.807 300.429,82.005 300.429,82.286" id="Fill-1"></path>
        </g>
    </g>
</svg>