<?xml version="1.0" encoding="UTF-8"?>
<svg width="126px" height="95px" viewBox="0 0 126 95" version="1.1" xmlns="http://www.w3.org/2000/svg" xmlns:xlink="http://www.w3.org/1999/xlink">
    <!-- Generator: Sketch 50.2 (55047) - http://www.bohemiancoding.com/sketch -->
    <title>Slice</title>
    <desc>Created with Sketch.</desc>
    <defs></defs>
    <g id="Page-1" stroke="none" stroke-width="1" fill="none" fill-rule="evenodd">
        <g id="rotate" transform="translate(31.000000, 19.000000)" fill="#000000" fill-rule="nonzero">
            <g id="Group">
                <path d="M62.154,2.04 C61.246,1.133 60.041,0.633 58.759,0.633 L42.286,0.633 C39.637,0.633 37.481,2.787 37.481,5.435 L37.481,23.665 L5.241,23.665 C2.594,23.665 0.439,25.818 0.439,28.466 L0.439,44.942 C0.439,47.591 2.593,49.746 5.241,49.746 L37.637,49.746 C38.181,51.884 40.08,53.368 42.283,53.368 L58.76,53.368 C61.407,53.368 63.561,51.214 63.561,48.566 L63.561,5.436 C63.562,4.154 63.062,2.948 62.154,2.04 Z M5.241,48.784 C3.125,48.784 1.402,47.06 1.402,44.942 L1.402,28.469 C1.402,26.352 3.125,24.629 5.241,24.629 L37.479,24.629 L37.479,25.999 L7.15,25.999 C6.884,25.999 6.668,26.215 6.668,26.48 L6.668,46.931 C6.668,47.197 6.885,47.412 7.15,47.412 L37.479,47.412 L37.479,48.564 C37.479,48.633 37.488,48.701 37.497,48.767 C37.498,48.772 37.499,48.777 37.499,48.783 L5.241,48.783 L5.241,48.784 Z M37.48,26.964 L37.48,46.452 L7.632,46.452 L7.632,26.964 L37.48,26.964 Z M62.6,48.568 C62.6,50.684 60.877,52.407 58.76,52.407 L42.284,52.407 C40.593,52.407 39.081,51.261 38.609,49.62 L38.588,49.549 C38.558,49.447 38.529,49.352 38.512,49.249 C38.495,49.159 38.489,49.065 38.483,48.973 L38.475,48.876 C38.471,48.833 38.466,48.79 38.46,48.749 C38.452,48.688 38.443,48.629 38.443,48.568 L38.443,5.436 C38.443,3.319 40.167,1.596 42.285,1.596 L58.76,1.596 C60.877,1.596 62.6,3.319 62.6,5.436 L62.6,48.568 Z" id="Shape"></path>
                <path d="M52.436,46.53 C52.349,46.443 52.248,46.357 52.109,46.252 C51.638,45.904 51.089,45.722 50.522,45.722 C49.043,45.722 47.841,46.925 47.841,48.404 C47.841,48.562 47.858,48.726 47.892,48.905 C47.92,49.055 47.967,49.196 48.006,49.302 C48.061,49.448 48.121,49.578 48.19,49.698 C48.666,50.552 49.56,51.083 50.523,51.083 C52.001,51.083 53.203,49.883 53.203,48.406 C53.203,47.855 53.033,47.322 52.712,46.864 C52.621,46.738 52.531,46.629 52.436,46.53 Z M50.521,50.119 C50.022,50.119 49.547,49.895 49.217,49.506 C49.128,49.4 49.052,49.285 48.991,49.166 C48.931,49.052 48.889,48.938 48.86,48.82 C48.822,48.669 48.802,48.532 48.802,48.403 C48.802,47.454 49.573,46.681 50.52,46.681 C50.924,46.681 51.321,46.832 51.635,47.106 C51.736,47.194 51.822,47.286 51.896,47.383 C51.98,47.497 52.045,47.607 52.094,47.716 C52.19,47.942 52.239,48.171 52.239,48.401 C52.24,49.349 51.469,50.119 50.521,50.119 Z" id="Shape"></path>
                <path d="M60.747,6.862 L40.297,6.862 C40.03,6.862 39.815,7.078 39.815,7.343 L39.815,44.221 C39.815,44.487 40.031,44.701 40.297,44.701 L60.747,44.701 C61.013,44.701 61.228,44.486 61.228,44.221 L61.228,7.344 C61.229,7.078 61.013,6.862 60.747,6.862 Z M60.265,43.738 L40.776,43.738 L40.776,7.824 L60.264,7.824 L60.264,43.738 L60.265,43.738 Z" id="Shape"></path>
                <path d="M18.775,19.937 C19.041,19.937 19.257,19.72 19.257,19.455 C19.257,12.636 24.542,7.12 31.331,6.799 L28.671,9.861 C28.496,10.064 28.518,10.363 28.72,10.542 C28.915,10.711 29.232,10.688 29.4,10.495 L32.8,6.584 C32.875,6.495 32.915,6.386 32.915,6.268 C32.915,6.127 32.854,5.995 32.749,5.903 L28.84,2.506 C28.647,2.338 28.329,2.36 28.16,2.554 C27.986,2.757 28.007,3.056 28.209,3.234 L31.214,5.846 C27.77,6.028 24.556,7.49 22.14,9.98 C19.66,12.538 18.292,15.904 18.292,19.459 C18.293,19.721 18.51,19.937 18.775,19.937 Z" id="Shape"></path>
            </g>
        </g>
    </g>
</svg>